ply
format ascii 1.0
comment Created by Blender 2.63 (sub 0) - www.blender.org, source file: ''
element vertex 100
property float x
property float y
property float z
property float nx
property float ny
property float nz
element face 81
property list uchar uint vertex_indices
end_header
-0.333333 -0.777778 0.000000 0.000000 -0.000000 1.000000
-0.555556 -0.777778 0.000000 0.000000 -0.000000 1.000000
-0.555556 -1.000000 0.000000 0.000000 -0.000000 1.000000
-0.333333 -1.000000 0.000000 0.000000 -0.000000 1.000000
0.777778 -1.000000 0.000000 0.000000 0.000000 1.000000
1.000000 -1.000000 0.000000 0.000000 0.000000 1.000000
1.000000 -0.777778 0.000000 0.000000 0.000000 1.000000
0.777778 -0.777778 0.000000 0.000000 0.000000 1.000000
-0.777778 -0.777778 0.000000 0.000000 -0.000000 1.000000
-0.777778 -1.000000 0.000000 0.000000 -0.000000 1.000000
0.555556 -0.777778 0.000000 0.000000 -0.000000 1.000000
0.555556 -1.000000 0.000000 0.000000 -0.000000 1.000000
-1.000000 -0.777778 0.000000 0.000000 -0.000000 1.000000
-1.000000 -1.000000 0.000000 0.000000 -0.000000 1.000000
0.333333 -0.777778 0.000000 0.000000 -0.000000 1.000000
0.333333 -1.000000 0.000000 0.000000 -0.000000 1.000000
0.111111 -0.777778 0.000000 0.000000 -0.000000 1.000000
0.111111 -1.000000 0.000000 0.000000 -0.000000 1.000000
-0.111111 -0.777778 0.000000 0.000000 -0.000000 1.000000
-0.111111 -1.000000 0.000000 0.000000 -0.000000 1.000000
0.333333 -0.555556 0.000000 0.000000 -0.000000 1.000000
0.111111 -0.555556 0.000000 0.000000 -0.000000 1.000000
-0.111111 -0.555556 0.000000 0.000000 -0.000000 1.000000
-0.333333 -0.555556 0.000000 0.000000 -0.000000 1.000000
-0.555556 -0.555556 0.000000 0.000000 -0.000000 1.000000
1.000000 -0.555556 0.000000 0.000000 -0.000000 1.000000
0.777778 -0.555556 0.000000 0.000000 -0.000000 1.000000
-0.777778 -0.555556 0.000000 0.000000 -0.000000 1.000000
0.555556 -0.555556 0.000000 0.000000 -0.000000 1.000000
-1.000000 -0.555556 0.000000 0.000000 -0.000000 1.000000
0.333333 -0.333333 0.000000 0.000000 -0.000000 1.000000
0.111111 -0.333333 0.000000 0.000000 -0.000000 1.000000
-0.111111 -0.333333 0.000000 0.000000 -0.000000 1.000000
-0.333333 -0.333333 0.000000 0.000000 -0.000000 1.000000
-0.555556 -0.333333 0.000000 0.000000 -0.000000 1.000000
1.000000 -0.333333 0.000000 0.000000 -0.000000 1.000000
0.777778 -0.333333 0.000000 0.000000 -0.000000 1.000000
-0.777778 -0.333333 0.000000 0.000000 -0.000000 1.000000
0.555556 -0.333333 0.000000 0.000000 -0.000000 1.000000
-1.000000 -0.333333 0.000000 0.000000 -0.000000 1.000000
-0.777778 -0.111111 0.000000 0.000000 -0.000000 1.000000
-1.000000 -0.111111 0.000000 0.000000 -0.000000 1.000000
0.555556 -0.111111 0.000000 0.000000 -0.000000 1.000000
0.333333 -0.111111 0.000000 0.000000 -0.000000 1.000000
0.111111 -0.111111 0.000000 0.000000 -0.000000 1.000000
-0.111111 -0.111111 0.000000 0.000000 -0.000000 1.000000
-0.333333 -0.111111 0.000000 0.000000 -0.000000 1.000000
-0.555556 -0.111111 0.000000 0.000000 -0.000000 1.000000
1.000000 -0.111111 0.000000 0.000000 -0.000000 1.000000
0.777778 -0.111111 0.000000 0.000000 -0.000000 1.000000
-0.777778 0.111111 0.000000 0.000000 -0.000000 1.000000
-1.000000 0.111111 0.000000 0.000000 -0.000000 1.000000
0.555556 0.111111 0.000000 0.000000 -0.000000 1.000000
0.333333 0.111111 0.000000 0.000000 -0.000000 1.000000
0.111111 0.111111 0.000000 0.000000 -0.000000 1.000000
-0.111111 0.111111 0.000000 0.000000 -0.000000 1.000000
-0.333333 0.111111 0.000000 0.000000 -0.000000 1.000000
-0.555556 0.111111 0.000000 0.000000 -0.000000 1.000000
1.000000 0.111111 0.000000 0.000000 -0.000000 1.000000
0.777778 0.111111 0.000000 0.000000 -0.000000 1.000000
-0.555556 0.333333 0.000000 0.000000 -0.000000 1.000000
-0.777778 0.333333 0.000000 0.000000 -0.000000 1.000000
0.777778 0.333333 0.000000 0.000000 -0.000000 1.000000
0.555556 0.333333 0.000000 0.000000 -0.000000 1.000000
-1.000000 0.333333 0.000000 0.000000 -0.000000 1.000000
0.333333 0.333333 0.000000 0.000000 -0.000000 1.000000
0.111111 0.333333 0.000000 0.000000 -0.000000 1.000000
-0.111111 0.333333 0.000000 0.000000 -0.000000 1.000000
-0.333333 0.333333 0.000000 0.000000 -0.000000 1.000000
1.000000 0.333333 0.000000 0.000000 -0.000000 1.000000
-0.555556 0.555556 0.000000 0.000000 -0.000000 1.000000
-0.777778 0.555556 0.000000 0.000000 -0.000000 1.000000
0.777778 0.555556 0.000000 0.000000 -0.000000 1.000000
0.555556 0.555556 0.000000 0.000000 -0.000000 1.000000
-1.000000 0.555556 0.000000 0.000000 -0.000000 1.000000
0.333333 0.555556 0.000000 0.000000 -0.000000 1.000000
0.111111 0.555556 0.000000 0.000000 -0.000000 1.000000
-0.111111 0.555556 0.000000 0.000000 -0.000000 1.000000
-0.333333 0.555556 0.000000 0.000000 -0.000000 1.000000
1.000000 0.555556 0.000000 0.000000 -0.000000 1.000000
-0.333333 0.777778 0.000000 0.000000 -0.000000 1.000000
-0.555556 0.777778 0.000000 0.000000 -0.000000 1.000000
1.000000 0.777778 0.000000 0.000000 -0.000000 1.000000
0.777778 0.777778 0.000000 0.000000 -0.000000 1.000000
-0.777778 0.777778 0.000000 0.000000 -0.000000 1.000000
0.555556 0.777778 0.000000 0.000000 -0.000000 1.000000
-1.000000 0.777778 0.000000 0.000000 -0.000000 1.000000
0.333333 0.777778 0.000000 0.000000 -0.000000 1.000000
0.111111 0.777778 0.000000 0.000000 -0.000000 1.000000
-0.111111 0.777778 0.000000 0.000000 -0.000000 1.000000
-0.333333 1.000000 0.000000 0.000000 -0.000000 1.000000
-0.555556 1.000000 0.000000 0.000000 -0.000000 1.000000
1.000000 1.000000 0.000000 0.000000 -0.000000 1.000000
0.777778 1.000000 0.000000 0.000000 -0.000000 1.000000
-0.777778 1.000000 0.000000 0.000000 -0.000000 1.000000
0.555556 1.000000 0.000000 0.000000 -0.000000 1.000000
-1.000000 1.000000 0.000000 0.000000 -0.000000 1.000000
0.333333 1.000000 0.000000 0.000000 -0.000000 1.000000
0.111111 1.000000 0.000000 0.000000 -0.000000 1.000000
-0.111111 1.000000 0.000000 0.000000 -0.000000 1.000000
4 0 1 2 3
4 4 5 6 7
4 1 8 9 2
4 7 10 11 4
4 8 12 13 9
4 10 14 15 11
4 14 16 17 15
4 16 18 19 17
4 18 0 3 19
4 20 21 16 14
4 21 22 18 16
4 22 23 0 18
4 23 24 1 0
4 25 26 7 6
4 24 27 8 1
4 26 28 10 7
4 27 29 12 8
4 28 20 14 10
4 30 31 21 20
4 31 32 22 21
4 32 33 23 22
4 33 34 24 23
4 35 36 26 25
4 34 37 27 24
4 36 38 28 26
4 37 39 29 27
4 38 30 20 28
4 40 41 39 37
4 42 43 30 38
4 43 44 31 30
4 44 45 32 31
4 45 46 33 32
4 46 47 34 33
4 48 49 36 35
4 47 40 37 34
4 49 42 38 36
4 50 51 41 40
4 52 53 43 42
4 53 54 44 43
4 54 55 45 44
4 55 56 46 45
4 56 57 47 46
4 58 59 49 48
4 57 50 40 47
4 59 52 42 49
4 60 61 50 57
4 62 63 52 59
4 61 64 51 50
4 63 65 53 52
4 65 66 54 53
4 66 67 55 54
4 67 68 56 55
4 68 60 57 56
4 69 62 59 58
4 70 71 61 60
4 72 73 63 62
4 71 74 64 61
4 73 75 65 63
4 75 76 66 65
4 76 77 67 66
4 77 78 68 67
4 78 70 60 68
4 79 72 62 69
4 80 81 70 78
4 82 83 72 79
4 81 84 71 70
4 83 85 73 72
4 84 86 74 71
4 85 87 75 73
4 87 88 76 75
4 88 89 77 76
4 89 80 78 77
4 90 91 81 80
4 92 93 83 82
4 91 94 84 81
4 93 95 85 83
4 94 96 86 84
4 95 97 87 85
4 97 98 88 87
4 98 99 89 88
4 99 90 80 89
